#tb 0: 1/15
#media_type 0: video
#codec_id 0: rawvideo
#dimensions 0: 320x168
#sar 0: 1/1
0,          0,          0,        1,   161280, 0x677c9fb3
0,          1,          1,        1,   161280, 0xaa280e0a
0,          2,          2,        1,   161280, 0x8a4d2225
0,          3,          3,        1,   161280, 0xf10f46a8
0,          4,          4,        1,   161280, 0x98d9eab6
0,          5,          5,        1,   161280, 0xa543ae1e
0,          6,          6,        1,   161280, 0x79d717ae
0,          7,          7,        1,   161280, 0x1a87e2cb
0,          8,          8,        1,   161280, 0xe5c000ac
0,          9,          9,        1,   161280, 0xa5827077
0,         10,         10,        1,   161280, 0xfd0615ee
0,         11,         11,        1,   161280, 0xc6fdc861
0,         12,         12,        1,   161280, 0xaa007c7e
0,         13,         13,        1,   161280, 0xf15e3a96
0,         14,         14,        1,   161280, 0xce827ae1
0,         15,         15,        1,   161280, 0xf379fc13
0,         16,         16,        1,   161280, 0x89686a0c
0,         17,         17,        1,   161280, 0x7e8342bd
0,         18,         18,        1,   161280, 0x640dab86
0,         19,         19,        1,   161280, 0xc6a86456
0,         20,         20,        1,   161280, 0xe360b538
0,         21,         21,        1,   161280, 0xbcc21064
0,         22,         22,        1,   161280, 0x95bc4e63
0,         23,         23,        1,   161280, 0x390fa1bd
0,         24,         24,        1,   161280, 0xa35b3bb9
0,         25,         25,        1,   161280, 0x730b0779
0,         26,         26,        1,   161280, 0xf3c3a3eb
0,         27,         27,        1,   161280, 0x676ecbaa
0,         28,         28,        1,   161280, 0x06c4a4e5
0,         29,         29,        1,   161280, 0x177d26d9
0,         30,         30,        1,   161280, 0xdaf69ebe
0,         31,         31,        1,   161280, 0xabadc296
0,         32,         32,        1,   161280, 0xec144665
0,         33,         33,        1,   161280, 0x6785aa48
0,         34,         34,        1,   161280, 0x2a0cfcaf
0,         35,         35,        1,   161280, 0x9288d513
0,         36,         36,        1,   161280, 0x1d295ad0
0,         37,         37,        1,   161280, 0xb9fd8406
0,         38,         38,        1,   161280, 0x98bced49
0,         39,         39,        1,   161280, 0x42e6fbae
0,         40,         40,        1,   161280, 0xfd218209
0,         41,         41,        1,   161280, 0x21c2ef31
0,         42,         42,        1,   161280, 0xce4be932
0,         43,         43,        1,   161280, 0xd5c0d5fc
0,         44,         44,        1,   161280, 0xf8d13076
0,         45,         45,        1,   161280, 0xdbf86007
0,         46,         46,        1,   161280, 0x9475a651
0,         47,         47,        1,   161280, 0x41bf1542
0,         48,         48,        1,   161280, 0x6945297f
0,         49,         49,        1,   161280, 0x2282025e
0,         50,         50,        1,   161280, 0x55aace0c
0,         51,         51,        1,   161280, 0xc78aa51c
0,         52,         52,        1,   161280, 0xb4b84e6c
0,         53,         53,        1,   161280, 0x3bbb3e44
0,         54,         54,        1,   161280, 0x4dd89d80
0,         55,         55,        1,   161280, 0xa446a5c5
0,         56,         56,        1,   161280, 0x8f56b1d6
0,         57,         57,        1,   161280, 0xa170df87
0,         58,         58,        1,   161280, 0x4740a4df
0,         59,         59,        1,   161280, 0x86608ee7
0,         60,         60,        1,   161280, 0x629b4543
0,         61,         61,        1,   161280, 0x697fb952
0,         62,         62,        1,   161280, 0x98e84a51
0,         63,         63,        1,   161280, 0x97949a90
0,         64,         64,        1,   161280, 0x6a8c9b96
0,         65,         65,        1,   161280, 0xafa714ab
0,         66,         66,        1,   161280, 0x0cf39314
0,         67,         67,        1,   161280, 0x9ccc8171
0,         68,         68,        1,   161280, 0x8232d5a8
0,         69,         69,        1,   161280, 0x250dd5cb
0,         70,         70,        1,   161280, 0xf764e43a
0,         71,         71,        1,   161280, 0x2f4bec00
0,         72,         72,        1,   161280, 0x76f1598b
0,         73,         73,        1,   161280, 0xa91b84da
0,         74,         74,        1,   161280, 0x011a77fb
0,         75,         75,        1,   161280, 0xdbf5341c
0,         76,         76,        1,   161280, 0x40d5abfa
0,         77,         77,        1,   161280, 0x9fb8360c
0,         78,         78,        1,   161280, 0xabc5fba8
0,         79,         79,        1,   161280, 0x98090909
0,         80,         80,        1,   161280, 0x9a3613bd
0,         81,         81,        1,   161280, 0x9071024f
0,         82,         82,        1,   161280, 0x4df39487
0,         83,         83,        1,   161280, 0x17658524
0,         84,         84,        1,   161280, 0xbcd794df
0,         85,         85,        1,   161280, 0x2a14ae05
0,         86,         86,        1,   161280, 0x664feab2
0,         87,         87,        1,   161280, 0xf6b721f4
0,         88,         88,        1,   161280, 0xfec565f3
0,         89,         89,        1,   161280, 0xd39aabee
0,         90,         90,        1,   161280, 0x1f3d5de7
0,         91,         91,        1,   161280, 0xaf97f50c
0,         92,         92,        1,   161280, 0xe34b6b6a
0,         93,         93,        1,   161280, 0x4117371e
0,         94,         94,        1,   161280, 0x4117371e
0,         95,         95,        1,   161280, 0xe555b55e
0,         96,         96,        1,   161280, 0xe555b55e
0,         97,         97,        1,   161280, 0xe555b55e
0,         98,         98,        1,   161280, 0xe555b55e
0,         99,         99,        1,   161280, 0xe555b55e
0,        100,        100,        1,   161280, 0xe555b55e
0,        101,        101,        1,   161280, 0xe555b55e
0,        102,        102,        1,   161280, 0xe555b55e
0,        103,        103,        1,   161280, 0xe555b55e
0,        104,        104,        1,   161280, 0xe555b55e
